<svg xmlns="http://www.w3.org/2000/svg" width="2280" height="1200" viewBox="0 0 2280 1200">
<defs>
<filter id="wave" x="-8%" y="-8%" width="116%" height="116%">
  <feTurbulence type="fractalNoise" baseFrequency="0.006 0.011" numOctaves="2" seed="11" result="n"/>
  <feDisplacementMap in="SourceGraphic" in2="n" scale="38" xChannelSelector="R" yChannelSelector="G"/>
</filter>
<linearGradient id="folds" x1="0" y1="0" x2="1" y2="0">
  <stop offset="0%" stop-color="#000" stop-opacity=".22"/>
  <stop offset="9%" stop-color="#fff" stop-opacity=".08"/>
  <stop offset="20%" stop-color="#000" stop-opacity=".16"/>
  <stop offset="33%" stop-color="#fff" stop-opacity=".06"/>
  <stop offset="46%" stop-color="#000" stop-opacity=".13"/>
  <stop offset="60%" stop-color="#fff" stop-opacity=".06"/>
  <stop offset="73%" stop-color="#000" stop-opacity=".16"/>
  <stop offset="87%" stop-color="#fff" stop-opacity=".07"/>
  <stop offset="100%" stop-color="#000" stop-opacity=".24"/>
</linearGradient>
<radialGradient id="vig" cx="50%" cy="45%" r="75%">
  <stop offset="60%" stop-color="#000" stop-opacity="0"/>
  <stop offset="100%" stop-color="#000" stop-opacity=".28"/>
</radialGradient>
</defs>
<g filter="url(#wave)">
<rect x="-70" y="-70.00" width="2420" height="162.31" fill="#B22234"/>
<rect x="-70" y="92.31" width="2420" height="92.31" fill="#FFFFFF"/>
<rect x="-70" y="184.62" width="2420" height="92.31" fill="#B22234"/>
<rect x="-70" y="276.92" width="2420" height="92.31" fill="#FFFFFF"/>
<rect x="-70" y="369.23" width="2420" height="92.31" fill="#B22234"/>
<rect x="-70" y="461.54" width="2420" height="92.31" fill="#FFFFFF"/>
<rect x="-70" y="553.85" width="2420" height="92.31" fill="#B22234"/>
<rect x="-70" y="646.15" width="2420" height="92.31" fill="#FFFFFF"/>
<rect x="-70" y="738.46" width="2420" height="92.31" fill="#B22234"/>
<rect x="-70" y="830.77" width="2420" height="92.31" fill="#FFFFFF"/>
<rect x="-70" y="923.08" width="2420" height="92.31" fill="#B22234"/>
<rect x="-70" y="1015.38" width="2420" height="92.31" fill="#FFFFFF"/>
<rect x="-70" y="1107.69" width="2420" height="162.31" fill="#B22234"/>
<rect x="-70" y="-70" width="982.0" height="716.2" fill="#3C3B6E"/>
<path d="M76.0,40.1 L81.5,57.0 L99.4,57.0 L84.9,67.5 L90.4,84.5 L76.0,74.0 L61.6,84.5 L67.1,67.5 L52.6,57.0 L70.5,57.0 Z" fill="#FFFFFF"/>
<path d="M228.0,40.1 L233.5,57.0 L251.4,57.0 L236.9,67.5 L242.4,84.5 L228.0,74.0 L213.6,84.5 L219.1,67.5 L204.6,57.0 L222.5,57.0 Z" fill="#FFFFFF"/>
<path d="M380.0,40.1 L385.5,57.0 L403.4,57.0 L388.9,67.5 L394.4,84.5 L380.0,74.0 L365.6,84.5 L371.1,67.5 L356.6,57.0 L374.5,57.0 Z" fill="#FFFFFF"/>
<path d="M532.0,40.1 L537.5,57.0 L555.4,57.0 L540.9,67.5 L546.4,84.5 L532.0,74.0 L517.6,84.5 L523.1,67.5 L508.6,57.0 L526.5,57.0 Z" fill="#FFFFFF"/>
<path d="M684.0,40.1 L689.5,57.0 L707.4,57.0 L692.9,67.5 L698.4,84.5 L684.0,74.0 L669.6,84.5 L675.1,67.5 L660.6,57.0 L678.5,57.0 Z" fill="#FFFFFF"/>
<path d="M836.0,40.1 L841.5,57.0 L859.4,57.0 L844.9,67.5 L850.4,84.5 L836.0,74.0 L821.6,84.5 L827.1,67.5 L812.6,57.0 L830.5,57.0 Z" fill="#FFFFFF"/>
<path d="M152.0,104.7 L157.5,121.6 L175.4,121.6 L160.9,132.1 L166.4,149.1 L152.0,138.6 L137.6,149.1 L143.1,132.1 L128.6,121.6 L146.5,121.6 Z" fill="#FFFFFF"/>
<path d="M304.0,104.7 L309.5,121.6 L327.4,121.6 L312.9,132.1 L318.4,149.1 L304.0,138.6 L289.6,149.1 L295.1,132.1 L280.6,121.6 L298.5,121.6 Z" fill="#FFFFFF"/>
<path d="M456.0,104.7 L461.5,121.6 L479.4,121.6 L464.9,132.1 L470.4,149.1 L456.0,138.6 L441.6,149.1 L447.1,132.1 L432.6,121.6 L450.5,121.6 Z" fill="#FFFFFF"/>
<path d="M608.0,104.7 L613.5,121.6 L631.4,121.6 L616.9,132.1 L622.4,149.1 L608.0,138.6 L593.6,149.1 L599.1,132.1 L584.6,121.6 L602.5,121.6 Z" fill="#FFFFFF"/>
<path d="M760.0,104.7 L765.5,121.6 L783.4,121.6 L768.9,132.1 L774.4,149.1 L760.0,138.6 L745.6,149.1 L751.1,132.1 L736.6,121.6 L754.5,121.6 Z" fill="#FFFFFF"/>
<path d="M76.0,169.3 L81.5,186.3 L99.4,186.3 L84.9,196.7 L90.4,213.7 L76.0,203.2 L61.6,213.7 L67.1,196.7 L52.6,186.3 L70.5,186.3 Z" fill="#FFFFFF"/>
<path d="M228.0,169.3 L233.5,186.3 L251.4,186.3 L236.9,196.7 L242.4,213.7 L228.0,203.2 L213.6,213.7 L219.1,196.7 L204.6,186.3 L222.5,186.3 Z" fill="#FFFFFF"/>
<path d="M380.0,169.3 L385.5,186.3 L403.4,186.3 L388.9,196.7 L394.4,213.7 L380.0,203.2 L365.6,213.7 L371.1,196.7 L356.6,186.3 L374.5,186.3 Z" fill="#FFFFFF"/>
<path d="M532.0,169.3 L537.5,186.3 L555.4,186.3 L540.9,196.7 L546.4,213.7 L532.0,203.2 L517.6,213.7 L523.1,196.7 L508.6,186.3 L526.5,186.3 Z" fill="#FFFFFF"/>
<path d="M684.0,169.3 L689.5,186.3 L707.4,186.3 L692.9,196.7 L698.4,213.7 L684.0,203.2 L669.6,213.7 L675.1,196.7 L660.6,186.3 L678.5,186.3 Z" fill="#FFFFFF"/>
<path d="M836.0,169.3 L841.5,186.3 L859.4,186.3 L844.9,196.7 L850.4,213.7 L836.0,203.2 L821.6,213.7 L827.1,196.7 L812.6,186.3 L830.5,186.3 Z" fill="#FFFFFF"/>
<path d="M152.0,233.9 L157.5,250.9 L175.4,250.9 L160.9,261.4 L166.4,278.3 L152.0,267.8 L137.6,278.3 L143.1,261.4 L128.6,250.9 L146.5,250.9 Z" fill="#FFFFFF"/>
<path d="M304.0,233.9 L309.5,250.9 L327.4,250.9 L312.9,261.4 L318.4,278.3 L304.0,267.8 L289.6,278.3 L295.1,261.4 L280.6,250.9 L298.5,250.9 Z" fill="#FFFFFF"/>
<path d="M456.0,233.9 L461.5,250.9 L479.4,250.9 L464.9,261.4 L470.4,278.3 L456.0,267.8 L441.6,278.3 L447.1,261.4 L432.6,250.9 L450.5,250.9 Z" fill="#FFFFFF"/>
<path d="M608.0,233.9 L613.5,250.9 L631.4,250.9 L616.9,261.4 L622.4,278.3 L608.0,267.8 L593.6,278.3 L599.1,261.4 L584.6,250.9 L602.5,250.9 Z" fill="#FFFFFF"/>
<path d="M760.0,233.9 L765.5,250.9 L783.4,250.9 L768.9,261.4 L774.4,278.3 L760.0,267.8 L745.6,278.3 L751.1,261.4 L736.6,250.9 L754.5,250.9 Z" fill="#FFFFFF"/>
<path d="M76.0,298.5 L81.5,315.5 L99.4,315.5 L84.9,326.0 L90.4,342.9 L76.0,332.5 L61.6,342.9 L67.1,326.0 L52.6,315.5 L70.5,315.5 Z" fill="#FFFFFF"/>
<path d="M228.0,298.5 L233.5,315.5 L251.4,315.5 L236.9,326.0 L242.4,342.9 L228.0,332.5 L213.6,342.9 L219.1,326.0 L204.6,315.5 L222.5,315.5 Z" fill="#FFFFFF"/>
<path d="M380.0,298.5 L385.5,315.5 L403.4,315.5 L388.9,326.0 L394.4,342.9 L380.0,332.5 L365.6,342.9 L371.1,326.0 L356.6,315.5 L374.5,315.5 Z" fill="#FFFFFF"/>
<path d="M532.0,298.5 L537.5,315.5 L555.4,315.5 L540.9,326.0 L546.4,342.9 L532.0,332.5 L517.6,342.9 L523.1,326.0 L508.6,315.5 L526.5,315.5 Z" fill="#FFFFFF"/>
<path d="M684.0,298.5 L689.5,315.5 L707.4,315.5 L692.9,326.0 L698.4,342.9 L684.0,332.5 L669.6,342.9 L675.1,326.0 L660.6,315.5 L678.5,315.5 Z" fill="#FFFFFF"/>
<path d="M836.0,298.5 L841.5,315.5 L859.4,315.5 L844.9,326.0 L850.4,342.9 L836.0,332.5 L821.6,342.9 L827.1,326.0 L812.6,315.5 L830.5,315.5 Z" fill="#FFFFFF"/>
<path d="M152.0,363.1 L157.5,380.1 L175.4,380.1 L160.9,390.6 L166.4,407.6 L152.0,397.1 L137.6,407.6 L143.1,390.6 L128.6,380.1 L146.5,380.1 Z" fill="#FFFFFF"/>
<path d="M304.0,363.1 L309.5,380.1 L327.4,380.1 L312.9,390.6 L318.4,407.6 L304.0,397.1 L289.6,407.6 L295.1,390.6 L280.6,380.1 L298.5,380.1 Z" fill="#FFFFFF"/>
<path d="M456.0,363.1 L461.5,380.1 L479.4,380.1 L464.9,390.6 L470.4,407.6 L456.0,397.1 L441.6,407.6 L447.1,390.6 L432.6,380.1 L450.5,380.1 Z" fill="#FFFFFF"/>
<path d="M608.0,363.1 L613.5,380.1 L631.4,380.1 L616.9,390.6 L622.4,407.6 L608.0,397.1 L593.6,407.6 L599.1,390.6 L584.6,380.1 L602.5,380.1 Z" fill="#FFFFFF"/>
<path d="M760.0,363.1 L765.5,380.1 L783.4,380.1 L768.9,390.6 L774.4,407.6 L760.0,397.1 L745.6,407.6 L751.1,390.6 L736.6,380.1 L754.5,380.1 Z" fill="#FFFFFF"/>
<path d="M76.0,427.8 L81.5,444.7 L99.4,444.7 L84.9,455.2 L90.4,472.2 L76.0,461.7 L61.6,472.2 L67.1,455.2 L52.6,444.7 L70.5,444.7 Z" fill="#FFFFFF"/>
<path d="M228.0,427.8 L233.5,444.7 L251.4,444.7 L236.9,455.2 L242.4,472.2 L228.0,461.7 L213.6,472.2 L219.1,455.2 L204.6,444.7 L222.5,444.7 Z" fill="#FFFFFF"/>
<path d="M380.0,427.8 L385.5,444.7 L403.4,444.7 L388.9,455.2 L394.4,472.2 L380.0,461.7 L365.6,472.2 L371.1,455.2 L356.6,444.7 L374.5,444.7 Z" fill="#FFFFFF"/>
<path d="M532.0,427.8 L537.5,444.7 L555.4,444.7 L540.9,455.2 L546.4,472.2 L532.0,461.7 L517.6,472.2 L523.1,455.2 L508.6,444.7 L526.5,444.7 Z" fill="#FFFFFF"/>
<path d="M684.0,427.8 L689.5,444.7 L707.4,444.7 L692.9,455.2 L698.4,472.2 L684.0,461.7 L669.6,472.2 L675.1,455.2 L660.6,444.7 L678.5,444.7 Z" fill="#FFFFFF"/>
<path d="M836.0,427.8 L841.5,444.7 L859.4,444.7 L844.9,455.2 L850.4,472.2 L836.0,461.7 L821.6,472.2 L827.1,455.2 L812.6,444.7 L830.5,444.7 Z" fill="#FFFFFF"/>
<path d="M152.0,492.4 L157.5,509.3 L175.4,509.3 L160.9,519.8 L166.4,536.8 L152.0,526.3 L137.6,536.8 L143.1,519.8 L128.6,509.3 L146.5,509.3 Z" fill="#FFFFFF"/>
<path d="M304.0,492.4 L309.5,509.3 L327.4,509.3 L312.9,519.8 L318.4,536.8 L304.0,526.3 L289.6,536.8 L295.1,519.8 L280.6,509.3 L298.5,509.3 Z" fill="#FFFFFF"/>
<path d="M456.0,492.4 L461.5,509.3 L479.4,509.3 L464.9,519.8 L470.4,536.8 L456.0,526.3 L441.6,536.8 L447.1,519.8 L432.6,509.3 L450.5,509.3 Z" fill="#FFFFFF"/>
<path d="M608.0,492.4 L613.5,509.3 L631.4,509.3 L616.9,519.8 L622.4,536.8 L608.0,526.3 L593.6,536.8 L599.1,519.8 L584.6,509.3 L602.5,509.3 Z" fill="#FFFFFF"/>
<path d="M760.0,492.4 L765.5,509.3 L783.4,509.3 L768.9,519.8 L774.4,536.8 L760.0,526.3 L745.6,536.8 L751.1,519.8 L736.6,509.3 L754.5,509.3 Z" fill="#FFFFFF"/>
<path d="M76.0,557.0 L81.5,574.0 L99.4,574.0 L84.9,584.4 L90.4,601.4 L76.0,590.9 L61.6,601.4 L67.1,584.4 L52.6,574.0 L70.5,574.0 Z" fill="#FFFFFF"/>
<path d="M228.0,557.0 L233.5,574.0 L251.4,574.0 L236.9,584.4 L242.4,601.4 L228.0,590.9 L213.6,601.4 L219.1,584.4 L204.6,574.0 L222.5,574.0 Z" fill="#FFFFFF"/>
<path d="M380.0,557.0 L385.5,574.0 L403.4,574.0 L388.9,584.4 L394.4,601.4 L380.0,590.9 L365.6,601.4 L371.1,584.4 L356.6,574.0 L374.5,574.0 Z" fill="#FFFFFF"/>
<path d="M532.0,557.0 L537.5,574.0 L555.4,574.0 L540.9,584.4 L546.4,601.4 L532.0,590.9 L517.6,601.4 L523.1,584.4 L508.6,574.0 L526.5,574.0 Z" fill="#FFFFFF"/>
<path d="M684.0,557.0 L689.5,574.0 L707.4,574.0 L692.9,584.4 L698.4,601.4 L684.0,590.9 L669.6,601.4 L675.1,584.4 L660.6,574.0 L678.5,574.0 Z" fill="#FFFFFF"/>
<path d="M836.0,557.0 L841.5,574.0 L859.4,574.0 L844.9,584.4 L850.4,601.4 L836.0,590.9 L821.6,601.4 L827.1,584.4 L812.6,574.0 L830.5,574.0 Z" fill="#FFFFFF"/>
</g>
<rect x="0" y="0" width="2280" height="1200" fill="url(#folds)"/>
<rect x="0" y="0" width="2280" height="1200" fill="url(#vig)"/>
</svg>